<mxfile host="app.diagrams.net" modified="2023-06-08T14:44:04.233Z" agent="Mozilla/5.0 (Macintosh; Intel Mac OS X 10_15_7) AppleWebKit/605.1.15 (KHTML, like Gecko) Version/16.5 Safari/605.1.15" version="21.3.7" etag="z0Vqq27pxptCH4mclfti" type="github">
  <diagram name="Page-1" id="32aqNj01k-AInMH_xD8q">
    <mxGraphModel>
      <root>
        <mxCell id="0" />
        <mxCell id="1" parent="0" />
      </root>
    </mxGraphModel>
  </diagram>
</mxfile>
